<svg width="48" height="50" viewBox="0 0 48 50" fill="none" xmlns="http://www.w3.org/2000/svg">
<path d="M36.8989 18.9519C37.3207 18.1199 36.9655 17.1147 36.1057 16.7066C35.2458 16.2985 34.2068 16.6421 33.785 17.474L30.4084 24.1341C29.3618 26.1984 26.2857 26.0976 25.3859 23.9695C23.3531 19.1618 16.4039 18.934 14.0395 23.5976L10.6629 30.2577C10.2411 31.0896 10.5962 32.0949 11.4561 32.503C12.316 32.9111 13.3549 32.5675 13.7767 31.7355L17.1533 25.0755C18.1999 23.0111 21.276 23.112 22.1758 25.2401C24.2086 30.0478 31.1579 30.2756 33.5223 25.612L36.8989 18.9519Z" fill="#F8F9FA"/>
<path fill-rule="evenodd" clip-rule="evenodd" d="M24.4402 0.064653C24.0009 0.0435532 23.5608 0.0435532 23.1216 0.0646531C21.4259 0.146108 19.8648 0.622821 18.1245 1.4042C16.4303 2.16489 14.4616 3.26462 11.9709 4.65593L11.8299 4.73472C9.33921 6.12599 7.3705 7.22571 5.84251 8.26496C4.27296 9.33249 3.06569 10.4022 2.14494 11.7823C1.90643 12.1398 1.6864 12.5085 1.48566 12.8871C0.710729 14.3487 0.356865 15.8951 0.186115 17.744C0.0198865 19.544 0.0198983 21.7434 0.019913 24.526V24.6836C0.0198988 27.4662 0.0198875 29.6656 0.186116 31.4656C0.356867 33.3145 0.71073 34.8609 1.48566 36.3224C1.6864 36.701 1.90643 37.0698 2.14494 37.4273C3.06569 38.8074 4.27296 39.8771 5.84251 40.9446C7.37045 41.9838 9.33907 43.0835 11.8296 44.4747L11.9708 44.5536C14.4614 45.9449 16.4303 47.0447 18.1245 47.8054C19.8648 48.5868 21.4259 49.0635 23.1216 49.1449C23.5608 49.166 24.0009 49.166 24.4402 49.1449C26.1358 49.0635 27.697 48.5868 29.4373 47.8054C31.1315 47.0447 33.1002 45.9449 35.5909 44.5536L35.7318 44.4749C38.2225 43.0836 40.1912 41.9839 41.7192 40.9446C43.2888 39.8771 44.4961 38.8074 45.4168 37.4273C45.6553 37.0698 45.8754 36.701 46.0761 36.3224C46.851 34.8609 47.2049 33.3144 47.3756 31.4655C47.5419 29.6656 47.5419 27.4662 47.5418 24.6837V24.526C47.5419 21.7435 47.5419 19.5439 47.3756 17.744C47.2049 15.8951 46.851 14.3487 46.0761 12.8871C45.8754 12.5085 45.6553 12.1398 45.4168 11.7823C44.4961 10.4022 43.2888 9.33248 41.7192 8.26496C40.1912 7.2257 38.2225 6.12598 35.7319 4.7347L35.5908 4.65591C33.1002 3.26463 31.1315 2.16488 29.4373 1.4042C27.697 0.622821 26.1358 0.146108 24.4402 0.064653ZM23.2936 3.41623C23.6182 3.40064 23.9435 3.40064 24.2682 3.41623C25.3614 3.46875 26.47 3.77135 27.9773 4.44812C29.5148 5.13842 31.3505 6.16209 33.9272 7.60145C36.5039 9.04081 38.338 10.0671 39.7246 11.0102C41.0841 11.9348 41.9092 12.7124 42.5028 13.6022C42.6791 13.8664 42.8418 14.139 42.9901 14.4188C43.4898 15.3611 43.7732 16.4413 43.9211 18.0427C44.0719 19.6761 44.0735 21.7261 44.0735 24.6048C44.0735 27.4835 44.0719 29.5335 43.9211 31.1669C43.7732 32.7683 43.4898 33.8484 42.9901 34.7908C42.8418 35.0706 42.6791 35.3431 42.5029 35.6074C41.9092 36.4972 41.0841 37.2747 39.7246 38.1993C38.338 39.1424 36.5039 40.1688 33.9272 41.6081C31.3505 43.0475 29.5148 44.0712 27.9773 44.7615C26.47 45.4382 25.3614 45.7408 24.2682 45.7933C23.9435 45.8089 23.6182 45.8089 23.2936 45.7933C22.2003 45.7408 21.0918 45.4382 19.5844 44.7615C18.047 44.0712 16.2113 43.0475 13.6346 41.6081C11.0578 40.1688 9.22371 39.1424 7.83711 38.1993C6.47768 37.2747 5.65256 36.4972 5.05891 35.6074C4.88262 35.3431 4.71999 35.0706 4.57162 34.7908C4.07199 33.8484 3.78857 32.7683 3.64068 31.1669C3.48983 29.5335 3.48824 27.4835 3.48824 24.6048C3.48824 21.7261 3.48983 19.6761 3.64067 18.0427C3.78856 16.4413 4.07198 15.3611 4.57161 14.4188C4.71999 14.139 4.88262 13.8664 5.05891 13.6022C5.65255 12.7124 6.47768 11.9348 7.83711 11.0102C9.22371 10.0671 11.0578 9.04081 13.6346 7.60145C16.2113 6.16209 18.047 5.13842 19.5844 4.44812C21.0918 3.77135 22.2003 3.46875 23.2936 3.41623Z" fill="#F8F9FA"/>
</svg>
