<svg width="49" height="47" viewBox="0 0 49 47" fill="none" xmlns="http://www.w3.org/2000/svg">
<path fill-rule="evenodd" clip-rule="evenodd" d="M29.136 11.3328C27.8128 7.24796 21.9846 7.24796 20.6614 11.3328C20.4727 11.9151 19.9529 12.2635 19.4176 12.2635C15.0053 12.2635 13.4089 17.7762 16.782 20.2343C17.2468 20.573 17.4649 21.2004 17.2739 21.7901C16.6256 23.7915 17.4571 25.6636 18.8756 26.6973C20.3014 27.7364 22.3959 27.9733 24.1468 26.6973C24.5987 26.368 25.1987 26.368 25.6506 26.6973C27.4015 27.9733 29.4959 27.7364 30.9218 26.6973C32.3403 25.6636 33.1718 23.7915 32.5235 21.7901C32.3325 21.2004 32.5506 20.573 33.0154 20.2343C36.3885 17.7762 34.7921 12.2635 30.3798 12.2635C29.8444 12.2635 29.3246 11.9151 29.136 11.3328ZM19.4176 15.3106C21.379 15.3106 23.072 14.0464 23.6549 12.247C24.0569 11.006 25.7405 11.006 26.1425 12.247C26.7254 14.0464 28.4184 15.3106 30.3798 15.3106C30.9866 15.3106 31.4395 15.673 31.6236 16.2414C31.8089 16.8133 31.6575 17.414 31.1317 17.7972C29.5766 18.9305 28.9495 20.9124 29.53 22.7044C29.7443 23.366 29.4878 23.9325 29.0381 24.2603C28.5957 24.5826 28.0418 24.6301 27.5343 24.2603C25.9663 23.1176 23.8311 23.1176 22.2631 24.2603C21.7556 24.6301 21.2016 24.5826 20.7592 24.2603C20.3095 23.9325 20.053 23.366 20.2673 22.7044C20.8478 20.9124 20.2208 18.9305 18.6656 17.7972C18.1398 17.414 17.9885 16.8133 18.1737 16.2414C18.3579 15.673 18.8107 15.3106 19.4176 15.3106Z" fill="#F8F9FA"/>
<path fill-rule="evenodd" clip-rule="evenodd" d="M24.8987 0.143555C14.7888 0.143555 6.59315 8.10158 6.59315 17.9183C6.59315 20.3043 7.07815 22.5835 7.9585 24.6655C7.35094 25.3484 6.78814 26.2953 6.03043 27.5702L2.21037 33.9949C1.73868 34.788 1.30252 35.5212 1.05106 36.1283C0.804754 36.7229 0.494559 37.7539 1.18005 38.7082C1.87422 39.6746 2.9885 39.7319 3.64887 39.7001C4.31748 39.6678 5.16745 39.5053 6.08049 39.3308L7.73586 39.0146C8.65357 38.8394 9.19806 38.7383 9.60204 38.7113C9.78655 38.699 9.88561 38.7073 9.93436 38.7152C9.95675 38.7189 9.96727 38.7223 9.96996 38.7232C9.97223 38.724 9.97344 38.7245 9.97611 38.726C9.97877 38.7275 9.97983 38.7282 9.98166 38.7297C9.98382 38.7315 9.99212 38.7387 10.0066 38.7557C10.038 38.7927 10.095 38.8719 10.1762 39.0332C10.3542 39.3864 10.5362 39.8948 10.8388 40.7541L11.3844 42.3041C11.6853 43.1592 11.9654 43.9553 12.2709 44.5337C12.5727 45.1049 13.1809 46.0133 14.39 46.1138C15.5838 46.2131 16.3483 45.4367 16.7555 44.9323C17.1711 44.4173 17.6071 43.6839 18.0786 42.8907L21.8215 36.5958C22.051 36.2097 22.2604 35.8576 22.4483 35.535C23.2504 35.6393 24.0685 35.6931 24.8987 35.6931C25.5415 35.6931 26.177 35.6608 26.8035 35.5979C26.9817 35.903 27.1786 36.2341 27.3931 36.5949L31.1365 42.8907C31.608 43.6839 32.044 44.4173 32.4596 44.9323C32.8668 45.4367 33.6313 46.2131 34.8251 46.1138C36.0342 46.0133 36.6424 45.1049 36.9442 44.5337C37.2497 43.9553 37.5298 43.1593 37.8307 42.3042L38.3763 40.7541C38.6789 39.8948 38.8609 39.3864 39.0389 39.0332C39.1201 38.8719 39.1771 38.7927 39.2085 38.7557C39.2103 38.7536 39.212 38.7516 39.2137 38.7498C39.225 38.737 39.2315 38.7313 39.2334 38.7297L39.2361 38.7277L39.239 38.726C39.2417 38.7245 39.2429 38.724 39.2451 38.7232C39.2478 38.7223 39.2583 38.7189 39.2807 38.7152C39.3295 38.7073 39.4286 38.699 39.6131 38.7113C40.017 38.7383 40.5615 38.8394 41.4792 39.0146L43.1346 39.3308C44.0477 39.5053 44.8976 39.6678 45.5662 39.7001C46.2266 39.7319 47.3409 39.6746 48.0351 38.7082C48.7205 37.7539 48.4103 36.7229 48.164 36.1283C47.9126 35.5213 47.4765 34.7881 47.0048 33.9951L43.1454 27.5041C42.5728 26.5401 42.1088 25.759 41.6342 25.1304C42.6437 22.9248 43.2042 20.4834 43.2042 17.9183C43.2042 8.10158 35.0085 0.143555 24.8987 0.143555ZM9.73124 17.9183C9.73124 9.78445 16.5219 3.19066 24.8987 3.19066C33.2754 3.19066 40.0661 9.78445 40.0661 17.9183C40.0661 20.3534 39.4587 22.6462 38.3844 24.6661C36.2332 28.7107 32.2104 31.6609 27.4359 32.4411C26.6119 32.5757 25.7643 32.646 24.8987 32.646C23.8865 32.646 22.8989 32.5499 21.9447 32.3671C17.2687 31.4714 13.3592 28.4846 11.2992 24.4478C10.2959 22.4818 9.73124 20.2663 9.73124 17.9183ZM8.65696 29.2471C9.05363 28.5799 9.35502 28.076 9.60147 27.6843C11.8644 31.02 15.2541 33.5724 19.248 34.8297L15.4149 41.2762C15.1412 41.7366 14.9231 42.1015 14.7408 42.3915C14.624 42.0832 14.4879 41.6992 14.3183 41.2176L13.7804 39.6896C13.5151 38.9359 13.2707 38.2412 12.9951 37.6943C12.691 37.0905 12.2668 36.4917 11.5452 36.0871C10.8235 35.6825 10.0773 35.6252 9.38674 35.6714C8.76123 35.7131 8.01944 35.8549 7.21458 36.0087L5.58279 36.3204C5.06845 36.4186 4.65788 36.496 4.32449 36.552C4.49202 36.2537 4.70839 35.8879 4.98213 35.4275L8.65696 29.2471ZM30.0551 34.9778C34.0829 33.8318 37.5322 31.3791 39.886 28.1264C40.076 28.4381 40.2965 28.807 40.5581 29.2471L44.233 35.4275C44.5067 35.8879 44.7231 36.2537 44.8906 36.552C44.5572 36.496 44.1467 36.4186 43.6323 36.3204L42.0007 36.0087C41.1958 35.8549 40.4539 35.7131 39.8284 35.6714C39.1378 35.6252 38.3916 35.6825 37.6699 36.0871C36.9483 36.4917 36.5241 37.0905 36.22 37.6943C35.9444 38.2412 35.7 38.9359 35.4347 39.6896L34.8968 41.2176C34.7272 41.6992 34.5911 42.0832 34.4743 42.3915C34.292 42.1015 34.0739 41.7366 33.8002 41.2762L30.0551 34.9778Z" fill="#F8F9FA"/>
</svg>
