<svg width="31" height="38" viewBox="0 0 31 38" fill="none" xmlns="http://www.w3.org/2000/svg">
<path fill-rule="evenodd" clip-rule="evenodd" d="M5.53513 0.522468C5.56444 0.522471 5.59384 0.522474 5.62332 0.522474H25.723C28.501 0.522474 30.753 2.70136 30.753 5.38915C30.753 6.99173 29.9375 8.49159 28.5726 9.3995L28.0183 9.76821C26.0808 11.057 26.0808 13.8249 28.0183 15.1137L28.5726 15.4824C29.9375 16.3904 30.753 17.8902 30.753 19.4928C30.753 22.1806 28.501 24.3595 25.723 24.3595H3.15963L3.15963 36.278C3.15963 37.0679 2.49781 37.7082 1.68141 37.7082C0.865018 37.7082 0.203198 37.0679 0.203198 36.278L0.2032 5.76661C0.2032 5.73809 0.203196 5.70965 0.203193 5.68128C0.203092 4.85592 0.203 4.09918 0.288541 3.48359C0.382739 2.8057 0.604368 2.08921 1.21344 1.49991C1.82251 0.910616 2.56305 0.696184 3.26368 0.605045C3.89993 0.522281 4.68207 0.52237 5.53513 0.522468ZM3.15963 21.499H25.723C26.8682 21.499 27.7966 20.6008 27.7966 19.4928C27.7966 18.8321 27.4604 18.2138 26.8977 17.8396L26.3434 17.4709C22.6972 15.0455 22.6972 9.83647 26.3434 7.41109L26.8977 7.04238C27.4604 6.6681 27.7966 6.0498 27.7966 5.38915C27.7966 4.28114 26.8682 3.38291 25.723 3.38291H5.62332C4.65242 3.38291 4.07294 3.38595 3.65762 3.43998C3.46731 3.46473 3.37199 3.4939 3.32906 3.51098C3.31912 3.51494 3.31259 3.51802 3.30878 3.51995L3.30398 3.52257L3.30127 3.52722C3.29927 3.5309 3.29609 3.53722 3.292 3.54684C3.27434 3.58838 3.2442 3.6806 3.21861 3.86473C3.16277 4.26657 3.15963 4.82723 3.15963 5.76661L3.15963 21.499Z" fill="#F8F9FA"/>
</svg>
