<svg width="37" height="37" viewBox="0 0 37 37" fill="none" xmlns="http://www.w3.org/2000/svg">
<path fill-rule="evenodd" clip-rule="evenodd" d="M10.8057 0.691437C10.1755 0.6489 9.40783 0.648912 8.48826 0.648926H8.38374C7.46417 0.648912 6.69648 0.6489 6.06625 0.691437C5.41018 0.735719 4.79046 0.831184 4.18965 1.07737C2.79552 1.64863 1.68788 2.74434 1.11041 4.12348C0.861548 4.71782 0.765045 5.33086 0.720281 5.97988C0.677281 6.60333 0.677293 7.36273 0.677308 8.27241V8.3758C0.677293 9.28547 0.677281 10.0449 0.720281 10.6684C0.765045 11.3174 0.861548 11.9304 1.11041 12.5248C1.68788 13.9039 2.79552 14.9996 4.18965 15.5709C4.79046 15.817 5.41018 15.9125 6.06625 15.9568C6.69649 15.9993 7.46415 15.9993 8.38373 15.9993H8.48825C9.40782 15.9993 10.1755 15.9993 10.8057 15.9568C11.4618 15.9125 12.0815 15.817 12.6823 15.5709C14.0765 14.9996 15.1841 13.9039 15.7616 12.5248C16.0104 11.9304 16.1069 11.3174 16.1517 10.6684C16.1947 10.0449 16.1947 9.28549 16.1947 8.37581V8.27242C16.1947 7.36274 16.1947 6.60333 16.1517 5.97988C16.1069 5.33086 16.0104 4.71782 15.7616 4.12348C15.1841 2.74434 14.0765 1.64863 12.6823 1.07737C12.0815 0.831184 11.4618 0.735719 10.8057 0.691437ZM5.3773 3.91375C5.53693 3.84834 5.77945 3.78801 6.27751 3.75439C6.7895 3.71983 7.45073 3.719 8.43599 3.719C9.42124 3.719 10.0825 3.71983 10.5945 3.75439C11.0925 3.78801 11.335 3.84834 11.4947 3.91375C12.1284 4.17341 12.6318 4.67146 12.8943 5.29834C12.9605 5.45625 13.0214 5.69616 13.0554 6.18886C13.0904 6.69535 13.0912 7.34946 13.0912 8.32412C13.0912 9.29877 13.0904 9.95288 13.0554 10.4594C13.0214 10.9521 12.9605 11.192 12.8943 11.3499C12.6318 11.9768 12.1284 12.4748 11.4947 12.7345C11.335 12.7999 11.0925 12.8602 10.5945 12.8938C10.0825 12.9284 9.42124 12.9292 8.43599 12.9292C7.45073 12.9292 6.7895 12.9284 6.27751 12.8938C5.77945 12.8602 5.53693 12.7999 5.3773 12.7345C4.7436 12.4748 4.24013 11.9768 3.97765 11.3499C3.91153 11.192 3.85054 10.9521 3.81655 10.4594C3.78162 9.95288 3.78078 9.29877 3.78078 8.32412C3.78078 7.34946 3.78162 6.69535 3.81655 6.18886C3.85054 5.69616 3.91153 5.45625 3.97765 5.29834C4.24013 4.67146 4.7436 4.17341 5.3773 3.91375Z" fill="#F8F9FA"/>
<path fill-rule="evenodd" clip-rule="evenodd" d="M31.4955 0.691437C30.8653 0.6489 30.0976 0.648912 29.1781 0.648926H29.0736C28.154 0.648912 27.3863 0.6489 26.7561 0.691437C26.1 0.735719 25.4803 0.831184 24.8795 1.07737C23.4853 1.64862 22.3777 2.74434 21.8002 4.12348C21.5514 4.71782 21.4549 5.33086 21.4101 5.97988C21.3671 6.60333 21.3671 7.36274 21.3671 8.27242V8.37581C21.3671 9.28549 21.3671 10.0449 21.4101 10.6684C21.4549 11.3174 21.5514 11.9304 21.8002 12.5248C22.3777 13.9039 23.4853 14.9996 24.8795 15.5709C25.4803 15.817 26.1 15.9125 26.7561 15.9568C27.3863 15.9993 28.154 15.9993 29.0735 15.9993H29.1781C30.0976 15.9993 30.8653 15.9993 31.4955 15.9568C32.1516 15.9125 32.7713 15.817 33.3721 15.5709C34.7663 14.9996 35.8739 13.9039 36.4514 12.5248C36.7002 11.9304 36.7967 11.3174 36.8415 10.6684C36.8845 10.0449 36.8845 9.28549 36.8845 8.37581V8.27242C36.8845 7.36274 36.8845 6.60333 36.8415 5.97988C36.7967 5.33086 36.7002 4.71782 36.4514 4.12348C35.8739 2.74434 34.7663 1.64862 33.3721 1.07737C32.7713 0.831184 32.1516 0.735719 31.4955 0.691437ZM26.0671 3.91375C26.2267 3.84834 26.4693 3.78801 26.9673 3.75439C27.4793 3.71983 28.1405 3.719 29.1258 3.719C30.1111 3.719 30.7723 3.71983 31.2843 3.75439C31.7823 3.78801 32.0249 3.84834 32.1845 3.91375C32.8182 4.17341 33.3217 4.67146 33.5841 5.29834C33.6503 5.45625 33.7113 5.69616 33.7452 6.18886C33.7802 6.69535 33.781 7.34946 33.781 8.32412C33.781 9.29877 33.7802 9.95288 33.7452 10.4594C33.7113 10.9521 33.6503 11.192 33.5841 11.3499C33.3217 11.9768 32.8182 12.4748 32.1845 12.7345C32.0249 12.7999 31.7823 12.8602 31.2843 12.8938C30.7723 12.9284 30.1111 12.9292 29.1258 12.9292C28.1405 12.9292 27.4793 12.9284 26.9673 12.8938C26.4693 12.8602 26.2267 12.7999 26.0671 12.7345C25.4334 12.4748 24.9299 11.9768 24.6675 11.3499C24.6013 11.192 24.5403 10.9521 24.5064 10.4594C24.4714 9.95288 24.4706 9.29877 24.4706 8.32412C24.4706 7.34946 24.4714 6.69535 24.5064 6.18886C24.5403 5.69616 24.6013 5.45625 24.6675 5.29834C24.9299 4.67146 25.4334 4.17341 26.0671 3.91375Z" fill="#F8F9FA"/>
<path fill-rule="evenodd" clip-rule="evenodd" d="M10.8057 21.1586C10.1755 21.1161 9.40782 21.1161 8.48824 21.1161H8.38373C7.46415 21.1161 6.69649 21.1161 6.06625 21.1586C5.41018 21.2029 4.79046 21.2984 4.18965 21.5445C2.79552 22.1158 1.68788 23.2115 1.11041 24.5906C0.861548 25.185 0.765045 25.798 0.720281 26.447C0.677281 27.0705 0.677293 27.8299 0.677308 28.7396V28.843C0.677293 29.7526 0.677281 30.5121 0.720281 31.1355C0.765045 31.7845 0.861548 32.3976 1.11041 32.9919C1.68788 34.3711 2.79552 35.4668 4.18965 36.038C4.79046 36.2842 5.41018 36.3797 6.06625 36.424C6.69649 36.4665 7.46415 36.4665 8.38373 36.4665H8.48825C9.40782 36.4665 10.1755 36.4665 10.8057 36.424C11.4618 36.3797 12.0815 36.2842 12.6823 36.038C14.0765 35.4668 15.1841 34.3711 15.7616 32.9919C16.0104 32.3976 16.1069 31.7845 16.1517 31.1355C16.1947 30.5121 16.1947 29.7527 16.1947 28.843V28.7396C16.1947 27.8299 16.1947 27.0705 16.1517 26.447C16.1069 25.798 16.0104 25.185 15.7616 24.5906C15.1841 23.2115 14.0765 22.1158 12.6823 21.5445C12.0815 21.2984 11.4618 21.2029 10.8057 21.1586ZM5.3773 24.3809C5.53693 24.3155 5.77945 24.2552 6.27751 24.2216C6.7895 24.187 7.45073 24.1862 8.43599 24.1862C9.42124 24.1862 10.0825 24.187 10.5945 24.2216C11.0925 24.2552 11.335 24.3155 11.4947 24.3809C12.1284 24.6406 12.6318 25.1386 12.8943 25.7655C12.9605 25.9234 13.0214 26.1633 13.0554 26.656C13.0904 27.1625 13.0912 27.8166 13.0912 28.7913C13.0912 29.7659 13.0904 30.4201 13.0554 30.9265C13.0214 31.4192 12.9605 31.6591 12.8943 31.8171C12.6318 32.4439 12.1284 32.942 11.4947 33.2017C11.335 33.2671 11.0925 33.3274 10.5945 33.361C10.0825 33.3956 9.42124 33.3964 8.43599 33.3964C7.45073 33.3964 6.7895 33.3956 6.27751 33.361C5.77945 33.3274 5.53693 33.2671 5.3773 33.2017C4.7436 32.942 4.24013 32.4439 3.97765 31.8171C3.91153 31.6591 3.85054 31.4192 3.81655 30.9265C3.78162 30.4201 3.78078 29.7659 3.78078 28.7913C3.78078 27.8166 3.78162 27.1625 3.81655 26.656C3.85054 26.1633 3.91153 25.9234 3.97765 25.7655C4.24013 25.1386 4.7436 24.6406 5.3773 24.3809Z" fill="#F8F9FA"/>
<path fill-rule="evenodd" clip-rule="evenodd" d="M31.4955 21.1586C30.8653 21.1161 30.0976 21.1161 29.1781 21.1161H29.0735C28.154 21.1161 27.3863 21.1161 26.7561 21.1586C26.1 21.2029 25.4803 21.2984 24.8795 21.5445C23.4853 22.1158 22.3777 23.2115 21.8002 24.5906C21.5514 25.185 21.4549 25.798 21.4101 26.447C21.3671 27.0705 21.3671 27.8299 21.3671 28.7396V28.843C21.3671 29.7527 21.3671 30.5121 21.4101 31.1355C21.4549 31.7845 21.5514 32.3976 21.8002 32.9919C22.3777 34.3711 23.4853 35.4668 24.8795 36.038C25.4803 36.2842 26.1 36.3797 26.7561 36.424C27.3863 36.4665 28.154 36.4665 29.0735 36.4665H29.1781C30.0976 36.4665 30.8653 36.4665 31.4955 36.424C32.1516 36.3797 32.7713 36.2842 33.3721 36.038C34.7663 35.4668 35.8739 34.3711 36.4514 32.9919C36.7002 32.3976 36.7967 31.7845 36.8415 31.1355C36.8845 30.5121 36.8845 29.7527 36.8845 28.843V28.7396C36.8845 27.8299 36.8845 27.0705 36.8415 26.447C36.7967 25.798 36.7002 25.185 36.4514 24.5906C35.8739 23.2115 34.7663 22.1158 33.3721 21.5445C32.7713 21.2984 32.1516 21.2029 31.4955 21.1586ZM26.0671 24.3809C26.2267 24.3155 26.4693 24.2552 26.9673 24.2216C27.4793 24.187 28.1405 24.1862 29.1258 24.1862C30.1111 24.1862 30.7723 24.187 31.2843 24.2216C31.7823 24.2552 32.0249 24.3155 32.1845 24.3809C32.8182 24.6406 33.3217 25.1386 33.5841 25.7655C33.6503 25.9234 33.7113 26.1633 33.7452 26.656C33.7802 27.1625 33.781 27.8166 33.781 28.7913C33.781 29.7659 33.7802 30.4201 33.7452 30.9265C33.7113 31.4192 33.6503 31.6591 33.5841 31.8171C33.3217 32.4439 32.8182 32.942 32.1845 33.2017C32.0249 33.2671 31.7823 33.3274 31.2843 33.361C30.7723 33.3956 30.1111 33.3964 29.1258 33.3964C28.1405 33.3964 27.4793 33.3956 26.9673 33.361C26.4693 33.3274 26.2267 33.2671 26.0671 33.2017C25.4334 32.942 24.9299 32.4439 24.6675 31.8171C24.6013 31.6591 24.5403 31.4192 24.5064 30.9265C24.4714 30.4201 24.4706 29.7659 24.4706 28.7913C24.4706 27.8166 24.4714 27.1625 24.5064 26.656C24.5403 26.1633 24.6013 25.9234 24.6675 25.7655C24.9299 25.1386 25.4334 24.6406 26.0671 24.3809Z" fill="#F8F9FA"/>
</svg>
