<svg width="19" height="19" viewBox="0 0 19 19" fill="none" xmlns="http://www.w3.org/2000/svg">
<path d="M9.5 4.45937C9.3818 4.45934 9.26476 4.4826 9.15555 4.52782C9.04634 4.57304 8.94712 4.63933 8.86354 4.72291C8.77996 4.80649 8.71367 4.90572 8.66845 5.01492C8.62323 5.12413 8.59997 5.24118 8.6 5.35937V8.95937H6.8C6.56131 8.95937 6.33239 9.05419 6.16361 9.22298C5.99482 9.39176 5.9 9.62068 5.9 9.85937C5.9 10.0981 5.99482 10.327 6.16361 10.4958C6.33239 10.6646 6.56131 10.7594 6.8 10.7594H9.5C9.6182 10.7594 9.73525 10.7361 9.84445 10.6909C9.95366 10.6457 10.0529 10.5794 10.1365 10.4958C10.22 10.4123 10.2863 10.313 10.3316 10.2038C10.3768 10.0946 10.4 9.97757 10.4 9.85937V5.35937C10.4 5.24118 10.3768 5.12413 10.3316 5.01492C10.2863 4.90572 10.22 4.80649 10.1365 4.72291C10.0529 4.63933 9.95366 4.57304 9.84445 4.52782C9.73525 4.4826 9.6182 4.45934 9.5 4.45937ZM9.5 0.859375C7.71997 0.859375 5.97991 1.38722 4.49987 2.37615C3.01983 3.36508 1.86628 4.77069 1.18509 6.41522C0.5039 8.05976 0.32567 9.86936 0.672937 11.6152C1.0202 13.361 1.87737 14.9647 3.13604 16.2233C4.39472 17.482 5.99836 18.3392 7.74419 18.6864C9.49002 19.0337 11.2996 18.8555 12.9442 18.1743C14.5887 17.4931 15.9943 16.3395 16.9832 14.8595C17.9722 13.3795 18.5 11.6394 18.5 9.85937C18.4973 7.47326 17.5482 5.18566 15.8609 3.49843C14.1737 1.81119 11.8861 0.862105 9.5 0.859375ZM9.5 17.0594C8.07598 17.0594 6.68393 16.6371 5.4999 15.846C4.31586 15.0548 3.39302 13.9303 2.84807 12.6147C2.30312 11.2991 2.16054 9.85139 2.43835 8.45472C2.71616 7.05806 3.4019 5.77514 4.40883 4.76821C5.41577 3.76127 6.69869 3.07553 8.09535 2.79772C9.49202 2.51991 10.9397 2.66249 12.2553 3.20744C13.571 3.75239 14.6954 4.67523 15.4866 5.85927C16.2777 7.0433 16.7 8.43535 16.7 9.85937C16.6978 11.7683 15.9385 13.5983 14.5888 14.9481C13.239 16.2979 11.4089 17.0572 9.5 17.0594Z" fill="#F8F9FA"/>
<path d="M9.5 4.45937C9.3818 4.45934 9.26476 4.4826 9.15555 4.52782C9.04634 4.57304 8.94712 4.63933 8.86354 4.72291C8.77996 4.80649 8.71367 4.90572 8.66845 5.01492C8.62323 5.12413 8.59997 5.24118 8.6 5.35937V8.95937H6.8C6.56131 8.95937 6.33239 9.05419 6.16361 9.22298C5.99482 9.39176 5.9 9.62068 5.9 9.85937C5.9 10.0981 5.99482 10.327 6.16361 10.4958C6.33239 10.6646 6.56131 10.7594 6.8 10.7594H9.5C9.6182 10.7594 9.73525 10.7361 9.84445 10.6909C9.95366 10.6457 10.0529 10.5794 10.1365 10.4958C10.22 10.4123 10.2863 10.313 10.3316 10.2038C10.3768 10.0946 10.4 9.97757 10.4 9.85937V5.35937C10.4 5.24118 10.3768 5.12413 10.3316 5.01492C10.2863 4.90572 10.22 4.80649 10.1365 4.72291C10.0529 4.63933 9.95366 4.57304 9.84445 4.52782C9.73525 4.4826 9.6182 4.45934 9.5 4.45937ZM9.5 0.859375C7.71997 0.859375 5.97991 1.38722 4.49987 2.37615C3.01983 3.36508 1.86628 4.77069 1.18509 6.41522C0.5039 8.05976 0.32567 9.86936 0.672937 11.6152C1.0202 13.361 1.87737 14.9647 3.13604 16.2233C4.39472 17.482 5.99836 18.3392 7.74419 18.6864C9.49002 19.0337 11.2996 18.8555 12.9442 18.1743C14.5887 17.4931 15.9943 16.3395 16.9832 14.8595C17.9722 13.3795 18.5 11.6394 18.5 9.85937C18.4973 7.47326 17.5482 5.18566 15.8609 3.49843C14.1737 1.81119 11.8861 0.862105 9.5 0.859375ZM9.5 17.0594C8.07598 17.0594 6.68393 16.6371 5.4999 15.846C4.31586 15.0548 3.39302 13.9303 2.84807 12.6147C2.30312 11.2991 2.16054 9.85139 2.43835 8.45472C2.71616 7.05806 3.4019 5.77514 4.40883 4.76821C5.41577 3.76127 6.69869 3.07553 8.09535 2.79772C9.49202 2.51991 10.9397 2.66249 12.2553 3.20744C13.571 3.75239 14.6954 4.67523 15.4866 5.85927C16.2777 7.0433 16.7 8.43535 16.7 9.85937C16.6978 11.7683 15.9385 13.5983 14.5888 14.9481C13.239 16.2979 11.4089 17.0572 9.5 17.0594Z" fill="#FF6C09"/>
<path d="M9.5 4.45937C9.3818 4.45934 9.26476 4.4826 9.15555 4.52782C9.04634 4.57304 8.94712 4.63933 8.86354 4.72291C8.77996 4.80649 8.71367 4.90572 8.66845 5.01492C8.62323 5.12413 8.59997 5.24118 8.6 5.35937V8.95937H6.8C6.56131 8.95937 6.33239 9.05419 6.16361 9.22298C5.99482 9.39176 5.9 9.62068 5.9 9.85937C5.9 10.0981 5.99482 10.327 6.16361 10.4958C6.33239 10.6646 6.56131 10.7594 6.8 10.7594H9.5C9.6182 10.7594 9.73525 10.7361 9.84445 10.6909C9.95366 10.6457 10.0529 10.5794 10.1365 10.4958C10.22 10.4123 10.2863 10.313 10.3316 10.2038C10.3768 10.0946 10.4 9.97757 10.4 9.85937V5.35937C10.4 5.24118 10.3768 5.12413 10.3316 5.01492C10.2863 4.90572 10.22 4.80649 10.1365 4.72291C10.0529 4.63933 9.95366 4.57304 9.84445 4.52782C9.73525 4.4826 9.6182 4.45934 9.5 4.45937ZM9.5 0.859375C7.71997 0.859375 5.97991 1.38722 4.49987 2.37615C3.01983 3.36508 1.86628 4.77069 1.18509 6.41522C0.5039 8.05976 0.32567 9.86936 0.672937 11.6152C1.0202 13.361 1.87737 14.9647 3.13604 16.2233C4.39472 17.482 5.99836 18.3392 7.74419 18.6864C9.49002 19.0337 11.2996 18.8555 12.9442 18.1743C14.5887 17.4931 15.9943 16.3395 16.9832 14.8595C17.9722 13.3795 18.5 11.6394 18.5 9.85937C18.4973 7.47326 17.5482 5.18566 15.8609 3.49843C14.1737 1.81119 11.8861 0.862105 9.5 0.859375ZM9.5 17.0594C8.07598 17.0594 6.68393 16.6371 5.4999 15.846C4.31586 15.0548 3.39302 13.9303 2.84807 12.6147C2.30312 11.2991 2.16054 9.85139 2.43835 8.45472C2.71616 7.05806 3.4019 5.77514 4.40883 4.76821C5.41577 3.76127 6.69869 3.07553 8.09535 2.79772C9.49202 2.51991 10.9397 2.66249 12.2553 3.20744C13.571 3.75239 14.6954 4.67523 15.4866 5.85927C16.2777 7.0433 16.7 8.43535 16.7 9.85937C16.6978 11.7683 15.9385 13.5983 14.5888 14.9481C13.239 16.2979 11.4089 17.0572 9.5 17.0594Z" fill="#D9D9D9"/>
<path d="M9.5 4.45937C9.3818 4.45934 9.26476 4.4826 9.15555 4.52782C9.04634 4.57304 8.94712 4.63933 8.86354 4.72291C8.77996 4.80649 8.71367 4.90572 8.66845 5.01492C8.62323 5.12413 8.59997 5.24118 8.6 5.35937V8.95937H6.8C6.56131 8.95937 6.33239 9.05419 6.16361 9.22298C5.99482 9.39176 5.9 9.62068 5.9 9.85937C5.9 10.0981 5.99482 10.327 6.16361 10.4958C6.33239 10.6646 6.56131 10.7594 6.8 10.7594H9.5C9.6182 10.7594 9.73525 10.7361 9.84445 10.6909C9.95366 10.6457 10.0529 10.5794 10.1365 10.4958C10.22 10.4123 10.2863 10.313 10.3316 10.2038C10.3768 10.0946 10.4 9.97757 10.4 9.85937V5.35937C10.4 5.24118 10.3768 5.12413 10.3316 5.01492C10.2863 4.90572 10.22 4.80649 10.1365 4.72291C10.0529 4.63933 9.95366 4.57304 9.84445 4.52782C9.73525 4.4826 9.6182 4.45934 9.5 4.45937ZM9.5 0.859375C7.71997 0.859375 5.97991 1.38722 4.49987 2.37615C3.01983 3.36508 1.86628 4.77069 1.18509 6.41522C0.5039 8.05976 0.32567 9.86936 0.672937 11.6152C1.0202 13.361 1.87737 14.9647 3.13604 16.2233C4.39472 17.482 5.99836 18.3392 7.74419 18.6864C9.49002 19.0337 11.2996 18.8555 12.9442 18.1743C14.5887 17.4931 15.9943 16.3395 16.9832 14.8595C17.9722 13.3795 18.5 11.6394 18.5 9.85937C18.4973 7.47326 17.5482 5.18566 15.8609 3.49843C14.1737 1.81119 11.8861 0.862105 9.5 0.859375ZM9.5 17.0594C8.07598 17.0594 6.68393 16.6371 5.4999 15.846C4.31586 15.0548 3.39302 13.9303 2.84807 12.6147C2.30312 11.2991 2.16054 9.85139 2.43835 8.45472C2.71616 7.05806 3.4019 5.77514 4.40883 4.76821C5.41577 3.76127 6.69869 3.07553 8.09535 2.79772C9.49202 2.51991 10.9397 2.66249 12.2553 3.20744C13.571 3.75239 14.6954 4.67523 15.4866 5.85927C16.2777 7.0433 16.7 8.43535 16.7 9.85937C16.6978 11.7683 15.9385 13.5983 14.5888 14.9481C13.239 16.2979 11.4089 17.0572 9.5 17.0594Z" fill="#31D57C"/>
<path d="M9.5 4.45937C9.3818 4.45934 9.26476 4.4826 9.15555 4.52782C9.04634 4.57304 8.94712 4.63933 8.86354 4.72291C8.77996 4.80649 8.71367 4.90572 8.66845 5.01492C8.62323 5.12413 8.59997 5.24118 8.6 5.35937V8.95937H6.8C6.56131 8.95937 6.33239 9.05419 6.16361 9.22298C5.99482 9.39176 5.9 9.62068 5.9 9.85937C5.9 10.0981 5.99482 10.327 6.16361 10.4958C6.33239 10.6646 6.56131 10.7594 6.8 10.7594H9.5C9.6182 10.7594 9.73525 10.7361 9.84445 10.6909C9.95366 10.6457 10.0529 10.5794 10.1365 10.4958C10.22 10.4123 10.2863 10.313 10.3316 10.2038C10.3768 10.0946 10.4 9.97757 10.4 9.85937V5.35937C10.4 5.24118 10.3768 5.12413 10.3316 5.01492C10.2863 4.90572 10.22 4.80649 10.1365 4.72291C10.0529 4.63933 9.95366 4.57304 9.84445 4.52782C9.73525 4.4826 9.6182 4.45934 9.5 4.45937ZM9.5 0.859375C7.71997 0.859375 5.97991 1.38722 4.49987 2.37615C3.01983 3.36508 1.86628 4.77069 1.18509 6.41522C0.5039 8.05976 0.32567 9.86936 0.672937 11.6152C1.0202 13.361 1.87737 14.9647 3.13604 16.2233C4.39472 17.482 5.99836 18.3392 7.74419 18.6864C9.49002 19.0337 11.2996 18.8555 12.9442 18.1743C14.5887 17.4931 15.9943 16.3395 16.9832 14.8595C17.9722 13.3795 18.5 11.6394 18.5 9.85937C18.4973 7.47326 17.5482 5.18566 15.8609 3.49843C14.1737 1.81119 11.8861 0.862105 9.5 0.859375ZM9.5 17.0594C8.07598 17.0594 6.68393 16.6371 5.4999 15.846C4.31586 15.0548 3.39302 13.9303 2.84807 12.6147C2.30312 11.2991 2.16054 9.85139 2.43835 8.45472C2.71616 7.05806 3.4019 5.77514 4.40883 4.76821C5.41577 3.76127 6.69869 3.07553 8.09535 2.79772C9.49202 2.51991 10.9397 2.66249 12.2553 3.20744C13.571 3.75239 14.6954 4.67523 15.4866 5.85927C16.2777 7.0433 16.7 8.43535 16.7 9.85937C16.6978 11.7683 15.9385 13.5983 14.5888 14.9481C13.239 16.2979 11.4089 17.0572 9.5 17.0594Z" fill="#E6FFF2"/>
<path d="M9.5 4.45937C9.3818 4.45934 9.26476 4.4826 9.15555 4.52782C9.04634 4.57304 8.94712 4.63933 8.86354 4.72291C8.77996 4.80649 8.71367 4.90572 8.66845 5.01492C8.62323 5.12413 8.59997 5.24118 8.6 5.35937V8.95937H6.8C6.56131 8.95937 6.33239 9.05419 6.16361 9.22298C5.99482 9.39176 5.9 9.62068 5.9 9.85937C5.9 10.0981 5.99482 10.327 6.16361 10.4958C6.33239 10.6646 6.56131 10.7594 6.8 10.7594H9.5C9.6182 10.7594 9.73525 10.7361 9.84445 10.6909C9.95366 10.6457 10.0529 10.5794 10.1365 10.4958C10.22 10.4123 10.2863 10.313 10.3316 10.2038C10.3768 10.0946 10.4 9.97757 10.4 9.85937V5.35937C10.4 5.24118 10.3768 5.12413 10.3316 5.01492C10.2863 4.90572 10.22 4.80649 10.1365 4.72291C10.0529 4.63933 9.95366 4.57304 9.84445 4.52782C9.73525 4.4826 9.6182 4.45934 9.5 4.45937ZM9.5 0.859375C7.71997 0.859375 5.97991 1.38722 4.49987 2.37615C3.01983 3.36508 1.86628 4.77069 1.18509 6.41522C0.5039 8.05976 0.32567 9.86936 0.672937 11.6152C1.0202 13.361 1.87737 14.9647 3.13604 16.2233C4.39472 17.482 5.99836 18.3392 7.74419 18.6864C9.49002 19.0337 11.2996 18.8555 12.9442 18.1743C14.5887 17.4931 15.9943 16.3395 16.9832 14.8595C17.9722 13.3795 18.5 11.6394 18.5 9.85937C18.4973 7.47326 17.5482 5.18566 15.8609 3.49843C14.1737 1.81119 11.8861 0.862105 9.5 0.859375ZM9.5 17.0594C8.07598 17.0594 6.68393 16.6371 5.4999 15.846C4.31586 15.0548 3.39302 13.9303 2.84807 12.6147C2.30312 11.2991 2.16054 9.85139 2.43835 8.45472C2.71616 7.05806 3.4019 5.77514 4.40883 4.76821C5.41577 3.76127 6.69869 3.07553 8.09535 2.79772C9.49202 2.51991 10.9397 2.66249 12.2553 3.20744C13.571 3.75239 14.6954 4.67523 15.4866 5.85927C16.2777 7.0433 16.7 8.43535 16.7 9.85937C16.6978 11.7683 15.9385 13.5983 14.5888 14.9481C13.239 16.2979 11.4089 17.0572 9.5 17.0594Z" fill="#696969"/>
<path d="M9.5 4.45937C9.3818 4.45934 9.26476 4.4826 9.15555 4.52782C9.04634 4.57304 8.94712 4.63933 8.86354 4.72291C8.77996 4.80649 8.71367 4.90572 8.66845 5.01492C8.62323 5.12413 8.59997 5.24118 8.6 5.35937V8.95937H6.8C6.56131 8.95937 6.33239 9.05419 6.16361 9.22298C5.99482 9.39176 5.9 9.62068 5.9 9.85937C5.9 10.0981 5.99482 10.327 6.16361 10.4958C6.33239 10.6646 6.56131 10.7594 6.8 10.7594H9.5C9.6182 10.7594 9.73525 10.7361 9.84445 10.6909C9.95366 10.6457 10.0529 10.5794 10.1365 10.4958C10.22 10.4123 10.2863 10.313 10.3316 10.2038C10.3768 10.0946 10.4 9.97757 10.4 9.85937V5.35937C10.4 5.24118 10.3768 5.12413 10.3316 5.01492C10.2863 4.90572 10.22 4.80649 10.1365 4.72291C10.0529 4.63933 9.95366 4.57304 9.84445 4.52782C9.73525 4.4826 9.6182 4.45934 9.5 4.45937ZM9.5 0.859375C7.71997 0.859375 5.97991 1.38722 4.49987 2.37615C3.01983 3.36508 1.86628 4.77069 1.18509 6.41522C0.5039 8.05976 0.32567 9.86936 0.672937 11.6152C1.0202 13.361 1.87737 14.9647 3.13604 16.2233C4.39472 17.482 5.99836 18.3392 7.74419 18.6864C9.49002 19.0337 11.2996 18.8555 12.9442 18.1743C14.5887 17.4931 15.9943 16.3395 16.9832 14.8595C17.9722 13.3795 18.5 11.6394 18.5 9.85937C18.4973 7.47326 17.5482 5.18566 15.8609 3.49843C14.1737 1.81119 11.8861 0.862105 9.5 0.859375ZM9.5 17.0594C8.07598 17.0594 6.68393 16.6371 5.4999 15.846C4.31586 15.0548 3.39302 13.9303 2.84807 12.6147C2.30312 11.2991 2.16054 9.85139 2.43835 8.45472C2.71616 7.05806 3.4019 5.77514 4.40883 4.76821C5.41577 3.76127 6.69869 3.07553 8.09535 2.79772C9.49202 2.51991 10.9397 2.66249 12.2553 3.20744C13.571 3.75239 14.6954 4.67523 15.4866 5.85927C16.2777 7.0433 16.7 8.43535 16.7 9.85937C16.6978 11.7683 15.9385 13.5983 14.5888 14.9481C13.239 16.2979 11.4089 17.0572 9.5 17.0594Z" fill="#161616"/>
</svg>
