<svg width="49" height="43" viewBox="0 0 49 43" fill="none" xmlns="http://www.w3.org/2000/svg">
<path fill-rule="evenodd" clip-rule="evenodd" d="M28.0819 12.6889C26.9985 9.36808 22.2159 9.36808 21.1325 12.6889C21.0423 12.9654 20.8044 13.108 20.586 13.108C16.9526 13.108 15.6748 17.5923 18.4221 19.5802C18.6298 19.7305 18.7398 20.023 18.6473 20.3066C18.1186 21.9272 18.7989 23.4495 19.958 24.2882C21.1244 25.1321 22.8493 25.3277 24.2859 24.2882C24.4809 24.147 24.7334 24.147 24.9285 24.2882C26.365 25.3277 28.09 25.1321 29.2563 24.2882C30.4155 23.4495 31.0958 21.9272 30.5671 20.3066C30.4746 20.023 30.5846 19.7305 30.7923 19.5802C33.5395 17.5923 32.2618 13.108 28.6284 13.108C28.41 13.108 28.1721 12.9654 28.0819 12.6889ZM24.0607 13.5769C24.243 13.0182 24.9714 13.0182 25.1537 13.5769C25.6295 15.0355 27.015 16.0676 28.6284 16.0676C28.7856 16.0676 28.8863 16.1125 28.9614 16.1704C29.047 16.2363 29.1283 16.3441 29.1749 16.4866C29.2688 16.7746 29.1879 17.0407 28.9497 17.2131C27.6755 18.1351 27.1654 19.7433 27.6389 21.1947C27.7431 21.514 27.6252 21.7681 27.4137 21.9211C27.3055 21.9995 27.1926 22.0335 27.0984 22.0363C27.0172 22.0388 26.9085 22.0205 26.7711 21.9211C25.4843 20.99 23.7301 20.99 22.4433 21.9211C22.3059 22.0205 22.1972 22.0388 22.116 22.0363C22.0218 22.0335 21.9089 21.9995 21.8006 21.9211C21.5892 21.7681 21.4713 21.514 21.5755 21.1947C22.049 19.7433 21.5389 18.1351 20.2647 17.2131C20.0265 17.0407 19.9456 16.7746 20.0395 16.4866C20.086 16.344 20.1674 16.2363 20.253 16.1704C20.328 16.1125 20.4288 16.0676 20.586 16.0676C22.1993 16.0676 23.5849 15.0355 24.0607 13.5769Z" fill="#F8F9FA"/>
<path fill-rule="evenodd" clip-rule="evenodd" d="M24.2762 0.33304C20.7844 0.33251 18.6537 0.332187 16.8783 0.888337C13.296 2.01056 10.4874 4.71843 9.32346 8.17227L9.30582 8.22524H8.70819C1.12505 8.22524 -2.13247 17.5026 3.89125 21.9438L3.91305 21.9599L8.96141 25.4134C9.14437 25.5386 9.33423 25.6538 9.53008 25.7585C9.53287 25.7656 9.53567 25.7727 9.53848 25.7797C9.55816 25.8292 9.5783 25.8787 9.59892 25.928C10.1218 27.1802 11.1423 28.6825 12.1238 29.645C13.7234 31.2136 15.3787 31.9091 18.022 33.0198L18.1976 33.0936C19.3362 33.5722 20.4874 34.0063 21.5564 34.323C22.0626 34.4731 22.5737 34.6039 23.0726 34.699V39.7939H16.4217C15.574 39.7939 14.8868 40.4564 14.8868 41.2737C14.8868 42.091 15.574 42.7535 16.4217 42.7535H32.7931C33.6408 42.7535 34.328 42.091 34.328 41.2737C34.328 40.4564 33.6408 39.7939 32.7931 39.7939H26.1422V34.699C26.6411 34.6039 27.1522 34.4731 27.6585 34.323C28.7274 34.0063 29.8787 33.5722 31.0172 33.0936L31.1929 33.0198C33.8361 31.9091 35.4915 31.2136 37.091 29.645C38.0725 28.6825 39.0931 27.1801 39.6159 25.928C39.6388 25.8731 39.6612 25.8182 39.6829 25.7631C39.8829 25.6534 40.0773 25.5341 40.2652 25.4056L45.3021 21.9599L45.3239 21.9438C51.3476 17.5026 48.0901 8.22524 40.5069 8.22524H39.909L39.8914 8.17227C38.7274 4.71842 35.9188 2.01056 32.3365 0.888337C30.5612 0.332187 28.4304 0.33251 24.9386 0.33304H24.2762ZM5.73548 19.5777C2.07139 16.8499 4.06912 11.1848 8.70819 11.1848H8.81521C8.74742 12.3393 8.74748 13.7238 8.74754 15.4585L8.74753 18.418C8.74738 19.6512 8.74725 20.7148 8.78844 21.6662L5.73548 19.5777ZM43.4796 19.5777L40.4264 21.6664C40.4676 20.7153 40.4674 19.6523 40.4673 18.4198L40.4673 15.4584C40.4673 13.7239 40.4674 12.3392 40.3996 11.1848H40.5069C45.146 11.1848 47.1437 16.8499 43.4796 19.5777ZM17.8269 3.70305C19.0787 3.31089 20.679 3.29264 24.6074 3.29264C28.5359 3.29264 30.1361 3.31089 31.3879 3.70305C34.0357 4.53252 36.1116 6.53398 36.9719 9.08683C37.0585 9.34367 37.1293 9.62482 37.1862 9.95086C37.3923 11.13 37.3976 12.7201 37.3976 15.6242V18.1899C37.3976 21.4396 37.3824 22.9587 36.9649 24.285C36.9079 24.4662 36.8429 24.6443 36.7683 24.8228C36.3966 25.713 35.5999 26.8858 34.9021 27.5701C33.7572 28.6928 32.6482 29.1794 29.7904 30.3807C28.7136 30.8333 27.677 31.2214 26.7567 31.4941C25.814 31.7734 25.0905 31.9018 24.6074 31.9018C24.1244 31.9018 23.4008 31.7734 22.4581 31.4941C21.5379 31.2214 20.5013 30.8333 19.4244 30.3807C16.5667 29.1794 15.4576 28.6928 14.3127 27.5701C13.6149 26.8858 12.8182 25.713 12.4465 24.8228C12.3697 24.639 12.303 24.4556 12.2448 24.2688C11.8321 22.9454 11.8172 21.4257 11.8172 18.1899V15.6242C11.8172 12.7201 11.8226 11.13 12.0286 9.95086C12.0856 9.62482 12.1563 9.34367 12.2429 9.08683C13.1032 6.53398 15.1791 4.53252 17.8269 3.70305Z" fill="#F8F9FA"/>
</svg>
