<svg width="26" height="19" viewBox="0 0 26 19" fill="none" xmlns="http://www.w3.org/2000/svg">
<path d="M24.1651 3.62366C23.7867 3.44777 23.3665 3.39056 22.9568 3.45914C22.5472 3.52771 22.166 3.71905 21.8609 4.00937L19.183 6.5808V4.71652C19.183 3.69354 18.7893 2.71246 18.0885 1.98911C17.3878 1.26575 16.4374 0.859375 15.4464 0.859375H4.23659C3.24559 0.859375 2.29517 1.26575 1.59442 1.98911C0.893676 2.71246 0.5 3.69354 0.5 4.71652V15.0022C0.5 16.0252 0.893676 17.0063 1.59442 17.7296C2.29517 18.453 3.24559 18.8594 4.23659 18.8594H15.4464C16.4374 18.8594 17.3878 18.453 18.0885 17.7296C18.7893 17.0063 19.183 16.0252 19.183 15.0022V13.1379L21.8733 15.7094C22.2694 16.0795 22.7839 16.2855 23.3181 16.2879C23.6146 16.2872 23.9075 16.2215 24.1775 16.0951C24.5449 15.9417 24.8596 15.6787 25.0815 15.3398C25.3033 15.0008 25.4223 14.6013 25.4231 14.1922V5.52652C25.4213 5.11597 25.3005 4.71538 25.0763 4.37627C24.8521 4.03716 24.5348 3.77505 24.1651 3.62366ZM16.6919 15.0022C16.6919 15.3432 16.5607 15.6703 16.3271 15.9114C16.0935 16.1525 15.7767 16.2879 15.4464 16.2879H4.23659C3.90626 16.2879 3.58945 16.1525 3.35587 15.9114C3.12229 15.6703 2.99106 15.3432 2.99106 15.0022V4.71652C2.99106 4.37553 3.12229 4.0485 3.35587 3.80738C3.58945 3.56626 3.90626 3.4308 4.23659 3.4308H15.4464C15.7767 3.4308 16.0935 3.56626 16.3271 3.80738C16.5607 4.0485 16.6919 4.37553 16.6919 4.71652V15.0022ZM22.9196 13.2022L19.4196 9.85938L22.9196 6.51652V13.2022Z" fill="#F8F9FA"/>
<path d="M24.1651 3.62366C23.7867 3.44777 23.3665 3.39056 22.9568 3.45914C22.5472 3.52771 22.166 3.71905 21.8609 4.00937L19.183 6.5808V4.71652C19.183 3.69354 18.7893 2.71246 18.0885 1.98911C17.3878 1.26575 16.4374 0.859375 15.4464 0.859375H4.23659C3.24559 0.859375 2.29517 1.26575 1.59442 1.98911C0.893676 2.71246 0.5 3.69354 0.5 4.71652V15.0022C0.5 16.0252 0.893676 17.0063 1.59442 17.7296C2.29517 18.453 3.24559 18.8594 4.23659 18.8594H15.4464C16.4374 18.8594 17.3878 18.453 18.0885 17.7296C18.7893 17.0063 19.183 16.0252 19.183 15.0022V13.1379L21.8733 15.7094C22.2694 16.0795 22.7839 16.2855 23.3181 16.2879C23.6146 16.2872 23.9075 16.2215 24.1775 16.0951C24.5449 15.9417 24.8596 15.6787 25.0815 15.3398C25.3033 15.0008 25.4223 14.6013 25.4231 14.1922V5.52652C25.4213 5.11597 25.3005 4.71538 25.0763 4.37627C24.8521 4.03716 24.5348 3.77505 24.1651 3.62366ZM16.6919 15.0022C16.6919 15.3432 16.5607 15.6703 16.3271 15.9114C16.0935 16.1525 15.7767 16.2879 15.4464 16.2879H4.23659C3.90626 16.2879 3.58945 16.1525 3.35587 15.9114C3.12229 15.6703 2.99106 15.3432 2.99106 15.0022V4.71652C2.99106 4.37553 3.12229 4.0485 3.35587 3.80738C3.58945 3.56626 3.90626 3.4308 4.23659 3.4308H15.4464C15.7767 3.4308 16.0935 3.56626 16.3271 3.80738C16.5607 4.0485 16.6919 4.37553 16.6919 4.71652V15.0022ZM22.9196 13.2022L19.4196 9.85938L22.9196 6.51652V13.2022Z" fill="#FF6C09"/>
<path d="M24.1651 3.62366C23.7867 3.44777 23.3665 3.39056 22.9568 3.45914C22.5472 3.52771 22.166 3.71905 21.8609 4.00937L19.183 6.5808V4.71652C19.183 3.69354 18.7893 2.71246 18.0885 1.98911C17.3878 1.26575 16.4374 0.859375 15.4464 0.859375H4.23659C3.24559 0.859375 2.29517 1.26575 1.59442 1.98911C0.893676 2.71246 0.5 3.69354 0.5 4.71652V15.0022C0.5 16.0252 0.893676 17.0063 1.59442 17.7296C2.29517 18.453 3.24559 18.8594 4.23659 18.8594H15.4464C16.4374 18.8594 17.3878 18.453 18.0885 17.7296C18.7893 17.0063 19.183 16.0252 19.183 15.0022V13.1379L21.8733 15.7094C22.2694 16.0795 22.7839 16.2855 23.3181 16.2879C23.6146 16.2872 23.9075 16.2215 24.1775 16.0951C24.5449 15.9417 24.8596 15.6787 25.0815 15.3398C25.3033 15.0008 25.4223 14.6013 25.4231 14.1922V5.52652C25.4213 5.11597 25.3005 4.71538 25.0763 4.37627C24.8521 4.03716 24.5348 3.77505 24.1651 3.62366ZM16.6919 15.0022C16.6919 15.3432 16.5607 15.6703 16.3271 15.9114C16.0935 16.1525 15.7767 16.2879 15.4464 16.2879H4.23659C3.90626 16.2879 3.58945 16.1525 3.35587 15.9114C3.12229 15.6703 2.99106 15.3432 2.99106 15.0022V4.71652C2.99106 4.37553 3.12229 4.0485 3.35587 3.80738C3.58945 3.56626 3.90626 3.4308 4.23659 3.4308H15.4464C15.7767 3.4308 16.0935 3.56626 16.3271 3.80738C16.5607 4.0485 16.6919 4.37553 16.6919 4.71652V15.0022ZM22.9196 13.2022L19.4196 9.85938L22.9196 6.51652V13.2022Z" fill="#D9D9D9"/>
<path d="M24.1651 3.62366C23.7867 3.44777 23.3665 3.39056 22.9568 3.45914C22.5472 3.52771 22.166 3.71905 21.8609 4.00937L19.183 6.5808V4.71652C19.183 3.69354 18.7893 2.71246 18.0885 1.98911C17.3878 1.26575 16.4374 0.859375 15.4464 0.859375H4.23659C3.24559 0.859375 2.29517 1.26575 1.59442 1.98911C0.893676 2.71246 0.5 3.69354 0.5 4.71652V15.0022C0.5 16.0252 0.893676 17.0063 1.59442 17.7296C2.29517 18.453 3.24559 18.8594 4.23659 18.8594H15.4464C16.4374 18.8594 17.3878 18.453 18.0885 17.7296C18.7893 17.0063 19.183 16.0252 19.183 15.0022V13.1379L21.8733 15.7094C22.2694 16.0795 22.7839 16.2855 23.3181 16.2879C23.6146 16.2872 23.9075 16.2215 24.1775 16.0951C24.5449 15.9417 24.8596 15.6787 25.0815 15.3398C25.3033 15.0008 25.4223 14.6013 25.4231 14.1922V5.52652C25.4213 5.11597 25.3005 4.71538 25.0763 4.37627C24.8521 4.03716 24.5348 3.77505 24.1651 3.62366ZM16.6919 15.0022C16.6919 15.3432 16.5607 15.6703 16.3271 15.9114C16.0935 16.1525 15.7767 16.2879 15.4464 16.2879H4.23659C3.90626 16.2879 3.58945 16.1525 3.35587 15.9114C3.12229 15.6703 2.99106 15.3432 2.99106 15.0022V4.71652C2.99106 4.37553 3.12229 4.0485 3.35587 3.80738C3.58945 3.56626 3.90626 3.4308 4.23659 3.4308H15.4464C15.7767 3.4308 16.0935 3.56626 16.3271 3.80738C16.5607 4.0485 16.6919 4.37553 16.6919 4.71652V15.0022ZM22.9196 13.2022L19.4196 9.85938L22.9196 6.51652V13.2022Z" fill="#31D57C"/>
<path d="M24.1651 3.62366C23.7867 3.44777 23.3665 3.39056 22.9568 3.45914C22.5472 3.52771 22.166 3.71905 21.8609 4.00937L19.183 6.5808V4.71652C19.183 3.69354 18.7893 2.71246 18.0885 1.98911C17.3878 1.26575 16.4374 0.859375 15.4464 0.859375H4.23659C3.24559 0.859375 2.29517 1.26575 1.59442 1.98911C0.893676 2.71246 0.5 3.69354 0.5 4.71652V15.0022C0.5 16.0252 0.893676 17.0063 1.59442 17.7296C2.29517 18.453 3.24559 18.8594 4.23659 18.8594H15.4464C16.4374 18.8594 17.3878 18.453 18.0885 17.7296C18.7893 17.0063 19.183 16.0252 19.183 15.0022V13.1379L21.8733 15.7094C22.2694 16.0795 22.7839 16.2855 23.3181 16.2879C23.6146 16.2872 23.9075 16.2215 24.1775 16.0951C24.5449 15.9417 24.8596 15.6787 25.0815 15.3398C25.3033 15.0008 25.4223 14.6013 25.4231 14.1922V5.52652C25.4213 5.11597 25.3005 4.71538 25.0763 4.37627C24.8521 4.03716 24.5348 3.77505 24.1651 3.62366ZM16.6919 15.0022C16.6919 15.3432 16.5607 15.6703 16.3271 15.9114C16.0935 16.1525 15.7767 16.2879 15.4464 16.2879H4.23659C3.90626 16.2879 3.58945 16.1525 3.35587 15.9114C3.12229 15.6703 2.99106 15.3432 2.99106 15.0022V4.71652C2.99106 4.37553 3.12229 4.0485 3.35587 3.80738C3.58945 3.56626 3.90626 3.4308 4.23659 3.4308H15.4464C15.7767 3.4308 16.0935 3.56626 16.3271 3.80738C16.5607 4.0485 16.6919 4.37553 16.6919 4.71652V15.0022ZM22.9196 13.2022L19.4196 9.85938L22.9196 6.51652V13.2022Z" fill="#E6FFF2"/>
<path d="M24.1651 3.62366C23.7867 3.44777 23.3665 3.39056 22.9568 3.45914C22.5472 3.52771 22.166 3.71905 21.8609 4.00937L19.183 6.5808V4.71652C19.183 3.69354 18.7893 2.71246 18.0885 1.98911C17.3878 1.26575 16.4374 0.859375 15.4464 0.859375H4.23659C3.24559 0.859375 2.29517 1.26575 1.59442 1.98911C0.893676 2.71246 0.5 3.69354 0.5 4.71652V15.0022C0.5 16.0252 0.893676 17.0063 1.59442 17.7296C2.29517 18.453 3.24559 18.8594 4.23659 18.8594H15.4464C16.4374 18.8594 17.3878 18.453 18.0885 17.7296C18.7893 17.0063 19.183 16.0252 19.183 15.0022V13.1379L21.8733 15.7094C22.2694 16.0795 22.7839 16.2855 23.3181 16.2879C23.6146 16.2872 23.9075 16.2215 24.1775 16.0951C24.5449 15.9417 24.8596 15.6787 25.0815 15.3398C25.3033 15.0008 25.4223 14.6013 25.4231 14.1922V5.52652C25.4213 5.11597 25.3005 4.71538 25.0763 4.37627C24.8521 4.03716 24.5348 3.77505 24.1651 3.62366ZM16.6919 15.0022C16.6919 15.3432 16.5607 15.6703 16.3271 15.9114C16.0935 16.1525 15.7767 16.2879 15.4464 16.2879H4.23659C3.90626 16.2879 3.58945 16.1525 3.35587 15.9114C3.12229 15.6703 2.99106 15.3432 2.99106 15.0022V4.71652C2.99106 4.37553 3.12229 4.0485 3.35587 3.80738C3.58945 3.56626 3.90626 3.4308 4.23659 3.4308H15.4464C15.7767 3.4308 16.0935 3.56626 16.3271 3.80738C16.5607 4.0485 16.6919 4.37553 16.6919 4.71652V15.0022ZM22.9196 13.2022L19.4196 9.85938L22.9196 6.51652V13.2022Z" fill="#696969"/>
<path d="M24.1651 3.62366C23.7867 3.44777 23.3665 3.39056 22.9568 3.45914C22.5472 3.52771 22.166 3.71905 21.8609 4.00937L19.183 6.5808V4.71652C19.183 3.69354 18.7893 2.71246 18.0885 1.98911C17.3878 1.26575 16.4374 0.859375 15.4464 0.859375H4.23659C3.24559 0.859375 2.29517 1.26575 1.59442 1.98911C0.893676 2.71246 0.5 3.69354 0.5 4.71652V15.0022C0.5 16.0252 0.893676 17.0063 1.59442 17.7296C2.29517 18.453 3.24559 18.8594 4.23659 18.8594H15.4464C16.4374 18.8594 17.3878 18.453 18.0885 17.7296C18.7893 17.0063 19.183 16.0252 19.183 15.0022V13.1379L21.8733 15.7094C22.2694 16.0795 22.7839 16.2855 23.3181 16.2879C23.6146 16.2872 23.9075 16.2215 24.1775 16.0951C24.5449 15.9417 24.8596 15.6787 25.0815 15.3398C25.3033 15.0008 25.4223 14.6013 25.4231 14.1922V5.52652C25.4213 5.11597 25.3005 4.71538 25.0763 4.37627C24.8521 4.03716 24.5348 3.77505 24.1651 3.62366ZM16.6919 15.0022C16.6919 15.3432 16.5607 15.6703 16.3271 15.9114C16.0935 16.1525 15.7767 16.2879 15.4464 16.2879H4.23659C3.90626 16.2879 3.58945 16.1525 3.35587 15.9114C3.12229 15.6703 2.99106 15.3432 2.99106 15.0022V4.71652C2.99106 4.37553 3.12229 4.0485 3.35587 3.80738C3.58945 3.56626 3.90626 3.4308 4.23659 3.4308H15.4464C15.7767 3.4308 16.0935 3.56626 16.3271 3.80738C16.5607 4.0485 16.6919 4.37553 16.6919 4.71652V15.0022ZM22.9196 13.2022L19.4196 9.85938L22.9196 6.51652V13.2022Z" fill="#161616"/>
</svg>
